<svg width="403" height="399" viewBox="0 0 403 399" fill="none" xmlns="http://www.w3.org/2000/svg">
<path fill-rule="evenodd" clip-rule="evenodd" d="M45.3585 98.8819L145.233 156.539L192.409 129.309V13.976L136.15 46.456C136.15 64.1856 116.967 75.2485 101.617 66.3837L45.3585 98.8819ZM210.578 13.9761V129.291L257.755 156.521L357.629 98.8639L301.37 66.3838C286.02 75.2486 266.837 64.1676 266.837 46.4562L210.578 13.9761ZM136.156 226.744L36.282 284.402V219.442C51.6319 210.577 51.6319 188.433 36.282 179.568V114.608L136.156 172.266V226.744ZM266.844 172.266L366.718 114.608V179.569C351.368 188.433 351.368 210.577 366.718 219.442V284.402L266.844 226.745V172.266ZM192.409 269.708V385.023L136.15 352.543C136.15 334.832 116.967 323.751 101.617 332.616L45.3585 300.136L145.233 242.478L192.409 269.708ZM257.755 242.479L357.629 300.136L301.37 332.616C286.02 323.751 266.837 334.814 266.837 352.544L210.578 385.024V269.709L257.755 242.479Z" fill="white"/>
</svg>
